<!--?xml version="1.0" standalone="no"?-->
              <svg id="sw-js-blob-svg" viewBox="0 0 100 100" xmlns="http://www.w3.org/2000/svg" version="1.1">
                    <defs> 
                        <linearGradient id="sw-gradient" x1="0" x2="1" y1="1" y2="0">
                            <stop id="stop1" stop-color="rgba(82, 109, 130, 1)" offset="0%"></stop>
                            <stop id="stop2" stop-color="rgba(221, 230, 237, 1)" offset="100%"></stop>
                        </linearGradient>
                    </defs>
                <path fill="url(#sw-gradient)" d="M22.2,-31.8C27.9,-30.9,30.9,-23.2,30,-16.3C29,-9.4,24.2,-3.3,24.5,4.4C24.8,12.1,30.1,21.5,27.7,23.8C25.3,26.2,15.2,21.5,6.9,24.2C-1.3,26.8,-7.5,36.7,-12.8,37.8C-18.1,38.8,-22.5,31.1,-26.4,24.2C-30.4,17.3,-34,11.4,-35.7,4.7C-37.4,-2,-37.2,-9.4,-32.9,-13.5C-28.7,-17.6,-20.4,-18.2,-14.3,-18.9C-8.1,-19.5,-4.1,-20.1,2.1,-23.4C8.3,-26.7,16.6,-32.7,22.2,-31.8Z" width="100%" height="100%" transform="translate(50 50)" stroke-width="0" style="transition: 0.3s;" stroke="url(#sw-gradient)"></path>
              </svg>